<svg xmlns="http://www.w3.org/2000/svg" data-v-1084b650="" width="300" height="300" style=""><rect id="backgroundrect" width="100%" height="100%" x="0" y="0" fill="none" stroke="none"/><!----> <!---->  <!---->  <!----> <g class="currentLayer" style=""><title>Layer 1</title><rect data-v-1084b650="" fill="none" x="28.947365283966064" y="0" width="271.05263471603394" height="300" class="logo-background-square selected" id="svg_1"/><g data-v-1084b650="" id="b5a93e15-ef7c-9d7a-680b-cdb17474f15f" fill="#FD2D01" class=""><path d="M102.24317799997328,161.2648938407898 L102.24317799997328,161.2648938407898 Q97.44717799997328,161.2648938407898 94.21317799997328,158.03089384078982 L94.21317799997328,158.03089384078982 L94.21317799997328,158.03089384078982 Q90.97917799997329,154.7968938407898 90.97917799997329,149.9568938407898 L90.97917799997329,149.9568938407898 L90.97917799997329,149.9568938407898 Q90.97917799997329,145.2048938407898 94.21317799997328,141.9488938407898 L94.21317799997328,141.9488938407898 L94.21317799997328,141.9488938407898 Q97.44717799997328,138.7148938407898 102.24317799997328,138.7148938407898 L102.24317799997328,138.7148938407898 L102.24317799997328,138.7148938407898 Q107.06117799997328,138.7148938407898 110.51517799997329,141.7288938407898 L110.51517799997329,141.7288938407898 L107.52317799997329,145.00689384078981 L107.52317799997329,145.00689384078981 Q105.21317799997328,143.2028938407898 102.24317799997328,143.2028938407898 L102.24317799997328,143.2028938407898 L102.24317799997328,143.2028938407898 Q99.20717799997328,143.2248938407898 97.33717799997328,145.1168938407898 L97.33717799997328,145.1168938407898 L97.33717799997328,145.1168938407898 Q95.48917799997328,146.9868938407898 95.48917799997328,149.9128938407898 L95.48917799997328,149.9128938407898 L95.48917799997328,149.9128938407898 Q95.48917799997328,153.0588938407898 97.35917799997328,154.9068938407898 L97.35917799997328,154.9068938407898 L97.35917799997328,154.9068938407898 Q99.22917799997329,156.7548938407898 102.26517799997329,156.7548938407898 L102.26517799997329,156.7548938407898 L102.26517799997329,156.7548938407898 Q104.70717799997328,156.7548938407898 106.00517799997328,155.8088938407898 L106.00517799997328,155.8088938407898 L106.00517799997328,151.9368938407898 L103.01317799997328,151.9588938407898 L103.01317799997328,147.7348938407898 L110.51517799997329,147.7348938407898 L110.51517799997329,158.2728938407898 L110.51517799997329,158.2728938407898 Q107.08317799997329,161.2648938407898 102.24317799997328,161.2648938407898 L102.24317799997328,161.2648938407898 zM118.58917799997329,146.2168938407898 L118.58917799997329,147.8888938407898 L118.58917799997329,147.8888938407898 Q120.21717799997329,146.2388938407898 122.52717799997329,146.2388938407898 L122.52717799997329,146.2388938407898 L122.52717799997329,146.2388938407898 Q123.25317799997329,146.2388938407898 123.91317799997329,146.3488938407898 L123.91317799997329,146.3488938407898 L123.25317799997329,150.50689384078981 L123.25317799997329,150.50689384078981 Q122.52717799997329,149.8468938407898 121.16317799997329,149.8028938407898 L121.16317799997329,149.8028938407898 L121.16317799997329,149.8028938407898 Q119.62317799997328,149.9128938407898 118.58917799997329,152.02489384078982 L118.58917799997329,152.02489384078982 L118.58917799997329,161.2648938407898 L114.38717799997329,161.2648938407898 L114.38717799997329,146.6788938407898 L118.58917799997329,146.2168938407898 zM133.4831779999733,161.4188938407898 L133.4831779999733,161.4188938407898 Q130.20517799997327,161.4188938407898 128.00517799997328,159.2188938407898 L128.00517799997328,159.2188938407898 L128.00517799997328,159.2188938407898 Q125.82717799997329,157.01889384078981 125.82717799997329,153.7628938407898 L125.82717799997329,153.7628938407898 L125.82717799997329,153.7628938407898 Q125.82717799997329,150.4848938407898 128.00517799997328,148.2848938407898 L128.00517799997328,148.2848938407898 L128.00517799997328,148.2848938407898 Q130.20517799997327,146.0848938407898 133.4831779999733,146.0848938407898 L133.4831779999733,146.0848938407898 L133.4831779999733,146.0848938407898 Q136.76117799997328,146.0848938407898 138.9611779999733,148.2848938407898 L138.9611779999733,148.2848938407898 L138.9611779999733,148.2848938407898 Q141.1611779999733,150.4848938407898 141.1611779999733,153.7628938407898 L141.1611779999733,153.7628938407898 L141.1611779999733,153.7628938407898 Q141.1611779999733,157.0408938407898 138.9611779999733,159.2188938407898 L138.9611779999733,159.2188938407898 L138.9611779999733,159.2188938407898 Q136.76117799997328,161.4188938407898 133.4831779999733,161.4188938407898 L133.4831779999733,161.4188938407898 zM133.4831779999733,157.7888938407898 L133.4831779999733,157.7888938407898 L133.4831779999733,157.7888938407898 Q135.17717799997328,157.7888938407898 136.25517799997328,156.6228938407898 L136.25517799997328,156.6228938407898 L136.25517799997328,156.6228938407898 Q137.3331779999733,155.4788938407898 137.3331779999733,153.7628938407898 L137.3331779999733,153.7628938407898 L137.3331779999733,153.7628938407898 Q137.3331779999733,152.0468938407898 136.25517799997328,150.9028938407898 L136.25517799997328,150.9028938407898 L136.25517799997328,150.9028938407898 Q135.17717799997328,149.7368938407898 133.4611779999733,149.7368938407898 L133.4611779999733,149.7368938407898 L133.4611779999733,149.7368938407898 Q131.76717799997328,149.7368938407898 130.68917799997328,150.9028938407898 L130.68917799997328,150.9028938407898 L130.68917799997328,150.9028938407898 Q129.63317799997327,152.0468938407898 129.63317799997327,153.7628938407898 L129.63317799997327,153.7628938407898 L129.63317799997327,153.7628938407898 Q129.63317799997327,155.4788938407898 130.68917799997328,156.6228938407898 L130.68917799997328,156.6228938407898 L130.68917799997328,156.6228938407898 Q131.76717799997328,157.7888938407898 133.4831779999733,157.7888938407898 zM153.0851779999733,155.9408938407898 L153.0851779999733,155.9408938407898 L153.0851779999733,146.2168938407898 L157.28717799997327,146.2168938407898 L157.28717799997327,161.2648938407898 L153.0851779999733,161.2648938407898 L153.0851779999733,159.90089384078982 L153.0851779999733,159.90089384078982 Q151.5671779999733,161.2648938407898 149.4771779999733,161.2648938407898 L149.4771779999733,161.2648938407898 L149.4771779999733,161.2648938407898 Q146.61717799997328,161.2648938407898 145.12117799997327,159.5268938407898 L145.12117799997327,159.5268938407898 L145.12117799997327,159.5268938407898 Q143.6031779999733,157.7888938407898 143.6031779999733,155.5448938407898 L143.6031779999733,155.5448938407898 L143.6031779999733,146.2168938407898 L147.8271779999733,146.2168938407898 L147.8271779999733,154.4888938407898 L147.8271779999733,154.4888938407898 Q147.8271779999733,155.9848938407898 148.57517799997328,156.8208938407898 L148.57517799997328,156.8208938407898 L148.57517799997328,156.8208938407898 Q149.32317799997327,157.6568938407898 150.8411779999733,157.7008938407898 L150.8411779999733,157.7008938407898 L150.8411779999733,157.7008938407898 Q152.1611779999733,157.6128938407898 153.0851779999733,155.9408938407898 zM165.07517799997328,167.6008938407898 L160.87317799997328,167.57889384078982 L160.87317799997328,146.6788938407898 L165.07517799997328,146.2168938407898 L165.07517799997328,147.4268938407898 L165.07517799997328,147.4268938407898 Q166.7691779999733,146.2168938407898 168.39717799997328,146.2168938407898 L168.39717799997328,146.2168938407898 L168.39717799997328,146.2168938407898 Q171.8511779999733,146.2168938407898 173.8751779999733,148.4828938407898 L173.8751779999733,148.4828938407898 L173.8751779999733,148.4828938407898 Q175.92117799997328,150.7268938407898 175.92117799997328,153.7408938407898 L175.92117799997328,153.7408938407898 L175.92117799997328,153.7408938407898 Q175.92117799997328,156.7548938407898 173.8751779999733,158.9988938407898 L173.8751779999733,158.9988938407898 L173.8751779999733,158.9988938407898 Q171.8511779999733,161.2648938407898 168.39717799997328,161.2648938407898 L168.39717799997328,161.2648938407898 L168.39717799997328,161.2648938407898 Q166.1311779999733,161.1108938407898 165.07517799997328,160.0328938407898 L165.07517799997328,160.0328938407898 L165.07517799997328,167.6008938407898 zM165.07517799997328,152.37689384078982 L165.07517799997328,152.37689384078982 L165.07517799997328,154.8188938407898 L165.07517799997328,154.8188938407898 Q165.38317799997327,157.3488938407898 168.24317799997328,157.7888938407898 L168.24317799997328,157.7888938407898 L168.24317799997328,157.7888938407898 Q171.8511779999733,157.5028938407898 172.31317799997328,154.0488938407898 L172.31317799997328,154.0488938407898 L172.31317799997328,154.0488938407898 Q172.15917799997328,149.8248938407898 168.24317799997328,149.6708938407898 L168.24317799997328,149.6708938407898 L168.24317799997328,149.6708938407898 Q165.38317799997327,150.1328938407898 165.07517799997328,152.37689384078982 zM185.7111779999733,161.4188938407898 L185.7111779999733,161.4188938407898 Q182.43317799997328,161.4188938407898 180.25517799997328,159.2188938407898 L180.25517799997328,159.2188938407898 L180.25517799997328,159.2188938407898 Q178.0551779999733,157.01889384078981 178.0551779999733,153.7628938407898 L178.0551779999733,153.7628938407898 L178.0551779999733,153.7628938407898 Q178.0551779999733,150.4848938407898 180.25517799997328,148.2848938407898 L180.25517799997328,148.2848938407898 L180.25517799997328,148.2848938407898 Q182.43317799997328,146.0848938407898 185.7111779999733,146.0848938407898 L185.7111779999733,146.0848938407898 L185.7111779999733,146.0848938407898 Q188.9891779999733,146.0848938407898 191.1891779999733,148.2848938407898 L191.1891779999733,148.2848938407898 L191.1891779999733,148.2848938407898 Q193.3891779999733,150.4848938407898 193.3891779999733,153.7628938407898 L193.3891779999733,153.7628938407898 L193.3891779999733,153.7628938407898 Q193.3891779999733,157.0408938407898 191.1891779999733,159.2188938407898 L191.1891779999733,159.2188938407898 L191.1891779999733,159.2188938407898 Q188.9891779999733,161.4188938407898 185.7111779999733,161.4188938407898 L185.7111779999733,161.4188938407898 zM185.7111779999733,157.7888938407898 L185.7111779999733,157.7888938407898 L185.7111779999733,157.7888938407898 Q187.4271779999733,157.7888938407898 188.4831779999733,156.6228938407898 L188.4831779999733,156.6228938407898 L188.4831779999733,156.6228938407898 Q189.5611779999733,155.4788938407898 189.5611779999733,153.7628938407898 L189.5611779999733,153.7628938407898 L189.5611779999733,153.7628938407898 Q189.5611779999733,152.0468938407898 188.4831779999733,150.9028938407898 L188.4831779999733,150.9028938407898 L188.4831779999733,150.9028938407898 Q187.4271779999733,149.7368938407898 185.6891779999733,149.7368938407898 L185.6891779999733,149.7368938407898 L185.6891779999733,149.7368938407898 Q183.9951779999733,149.7368938407898 182.9171779999733,150.9028938407898 L182.9171779999733,150.9028938407898 L182.9171779999733,150.9028938407898 Q181.86117799997328,152.0468938407898 181.86117799997328,153.7628938407898 L181.86117799997328,153.7628938407898 L181.86117799997328,153.7628938407898 Q181.86117799997328,155.4788938407898 182.9171779999733,156.6228938407898 L182.9171779999733,156.6228938407898 L182.9171779999733,156.6228938407898 Q183.9951779999733,157.7888938407898 185.7111779999733,157.7888938407898 zM200.4071779999733,151.6508938407898 L200.4071779999733,151.6508938407898 L200.4071779999733,161.2648938407898 L196.18317799997328,161.2648938407898 L196.18317799997328,146.6788938407898 L200.4071779999733,146.2168938407898 L200.4071779999733,147.5588938407898 L200.4071779999733,147.5588938407898 Q201.8151779999733,146.2388938407898 204.01517799997328,146.2388938407898 L204.01517799997328,146.2388938407898 L204.01517799997328,146.2388938407898 Q206.8531779999733,146.2388938407898 208.37117799997327,147.9548938407898 L208.37117799997327,147.9548938407898 L208.37117799997327,147.9548938407898 Q210.0211779999733,146.2388938407898 213.3211779999733,146.2388938407898 L213.3211779999733,146.2388938407898 L213.3211779999733,146.2388938407898 Q216.1811779999733,146.2388938407898 217.6991779999733,147.9548938407898 L217.6991779999733,147.9548938407898 L217.6991779999733,147.9548938407898 Q219.19517799997328,149.6928938407898 219.19517799997328,151.9588938407898 L219.19517799997328,151.9588938407898 L219.19517799997328,161.2648938407898 L214.99317799997328,161.2648938407898 L214.99317799997328,152.9928938407898 L214.99317799997328,152.9928938407898 Q214.99317799997328,151.4968938407898 214.3111779999733,150.6608938407898 L214.3111779999733,150.6608938407898 L214.3111779999733,150.6608938407898 Q213.6291779999733,149.8468938407898 212.11117799997328,149.8028938407898 L212.11117799997328,149.8028938407898 L212.11117799997328,149.8028938407898 Q210.8571779999733,149.8908938407898 209.95517799997327,151.4528938407898 L209.95517799997327,151.4528938407898 L209.95517799997327,151.4528938407898 Q209.8671779999733,151.9148938407898 209.8671779999733,152.3988938407898 L209.8671779999733,152.3988938407898 L209.8671779999733,161.2648938407898 L205.6651779999733,161.2648938407898 L205.6651779999733,152.9928938407898 L205.6651779999733,152.9928938407898 Q205.6651779999733,151.4968938407898 204.9831779999733,150.6608938407898 L204.9831779999733,150.6608938407898 L204.9831779999733,150.6608938407898 Q204.30117799997328,149.8468938407898 202.7831779999733,149.8028938407898 L202.7831779999733,149.8028938407898 L202.7831779999733,149.8028938407898 Q201.39717799997328,149.8908938407898 200.4071779999733,151.6508938407898 zM224.84917799997328,150.5948938407898 L223.1991779999733,148.04289384078982 L223.1991779999733,148.04289384078982 Q226.05917799997331,146.2388938407898 229.82117799997332,146.2388938407898 L229.82117799997332,146.2388938407898 L229.82117799997332,146.2388938407898 Q232.52717799997328,146.2388938407898 234.0891779999733,147.7348938407898 L234.0891779999733,147.7348938407898 L234.0891779999733,147.7348938407898 Q235.6731779999733,149.2528938407898 235.6731779999733,152.2448938407898 L235.6731779999733,152.2448938407898 L235.6731779999733,161.2648938407898 L231.4711779999733,161.2648938407898 L231.4711779999733,160.0768938407898 L231.4711779999733,160.0768938407898 Q229.62317799997328,161.2648938407898 228.1491779999733,161.2648938407898 L228.1491779999733,161.2648938407898 L228.1491779999733,161.2648938407898 Q225.15717799997327,161.2648938407898 223.6391779999733,159.9888938407898 L223.6391779999733,159.9888938407898 L223.6391779999733,159.9888938407898 Q222.14317799997326,158.7128938407898 222.14317799997326,156.4688938407898 L222.14317799997326,156.4688938407898 L222.14317799997326,156.4688938407898 Q222.14317799997326,154.3568938407898 223.57317799997332,152.7068938407898 L223.57317799997332,152.7068938407898 L223.57317799997332,152.7068938407898 Q224.98117799997328,151.0568938407898 228.1491779999733,151.0568938407898 L228.1491779999733,151.0568938407898 L228.1491779999733,151.0568938407898 Q229.62317799997328,151.0568938407898 231.4711779999733,151.9588938407898 L231.4711779999733,151.9588938407898 L231.4711779999733,151.4968938407898 L231.4711779999733,151.4968938407898 Q231.4271779999733,149.8468938407898 229.05117799997328,149.6928938407898 L229.05117799997328,149.6928938407898 L229.05117799997328,149.6928938407898 Q226.34517799997332,149.6928938407898 224.84917799997328,150.5948938407898 L224.84917799997328,150.5948938407898 zM231.4711779999733,156.7548938407898 L231.4711779999733,156.7548938407898 L231.4711779999733,155.0608938407898 L231.4711779999733,155.0608938407898 Q230.8771779999733,153.8948938407898 228.61117799997328,153.8948938407898 L228.61117799997328,153.8948938407898 L228.61117799997328,153.8948938407898 Q225.90517799997326,154.2028938407898 225.75117799997327,156.00689384078981 L225.75117799997327,156.00689384078981 L225.75117799997327,156.00689384078981 Q225.90517799997326,157.7888938407898 228.61117799997328,157.9428938407898 L228.61117799997328,157.9428938407898 L228.61117799997328,157.9428938407898 Q230.8771779999733,157.9428938407898 231.4711779999733,156.7548938407898 zM243.65917799997328,151.7168938407898 L243.65917799997328,151.7168938407898 L243.65917799997328,161.2648938407898 L239.4351779999733,161.2648938407898 L239.4351779999733,146.6788938407898 L243.65917799997328,146.2168938407898 L243.65917799997328,147.5808938407898 L243.65917799997328,147.5808938407898 Q245.1771779999733,146.2388938407898 247.26717799997328,146.2388938407898 L247.26717799997328,146.2388938407898 L247.26717799997328,146.2388938407898 Q250.1271779999733,146.2388938407898 251.62317799997328,147.9548938407898 L251.62317799997328,147.9548938407898 L251.62317799997328,147.9548938407898 Q253.11917799997326,149.6928938407898 253.11917799997326,151.9588938407898 L253.11917799997326,151.9588938407898 L253.11917799997326,161.2648938407898 L248.91717799997332,161.2648938407898 L248.91717799997332,152.9928938407898 L248.91717799997332,152.9928938407898 Q248.91717799997332,151.4968938407898 248.16917799997327,150.6608938407898 L248.16917799997327,150.6608938407898 L248.16917799997327,150.6608938407898 Q247.3991779999733,149.8468938407898 245.88117799997332,149.8028938407898 L245.88117799997332,149.8028938407898 L245.88117799997332,149.8028938407898 Q244.58317799997332,149.8908938407898 243.65917799997328,151.7168938407898 zM260.8631779999733,161.2648938407898 L256.6611779999733,161.2648938407898 L256.6611779999733,146.2168938407898 L260.8631779999733,146.2168938407898 L260.8631779999733,161.2648938407898 zM256.5071779999733,142.6308938407898 L256.5071779999733,142.6308938407898 L256.5071779999733,142.6308938407898 Q256.5071779999733,143.5328938407898 257.1011779999733,144.1268938407898 L257.1011779999733,144.1268938407898 L257.1011779999733,144.1268938407898 Q257.7171779999733,144.7208938407898 258.7731779999733,144.7208938407898 L258.7731779999733,144.7208938407898 L258.7731779999733,144.7208938407898 Q259.8071779999733,144.7208938407898 260.4231779999733,144.1268938407898 L260.4231779999733,144.1268938407898 L260.4231779999733,144.1268938407898 Q261.0171779999733,143.5328938407898 261.0171779999733,142.6308938407898 L261.0171779999733,142.6308938407898 L261.0171779999733,142.6308938407898 Q261.0171779999733,141.7288938407898 260.4231779999733,141.1128938407898 L260.4231779999733,141.1128938407898 L260.4231779999733,141.1128938407898 Q259.8071779999733,140.4968938407898 258.72917799997333,140.4968938407898 L258.72917799997333,140.4968938407898 L258.72917799997333,140.4968938407898 Q257.7171779999733,140.4968938407898 257.1011779999733,141.1128938407898 L257.1011779999733,141.1128938407898 L257.1011779999733,141.1128938407898 Q256.5071779999733,141.7288938407898 256.5071779999733,142.6308938407898 zM266.4731779999733,150.5948938407898 L264.8231779999733,148.04289384078982 L264.8231779999733,148.04289384078982 Q267.6831779999733,146.2388938407898 271.4451779999733,146.2388938407898 L271.4451779999733,146.2388938407898 L271.4451779999733,146.2388938407898 Q274.1511779999733,146.2388938407898 275.7351779999733,147.7348938407898 L275.7351779999733,147.7348938407898 L275.7351779999733,147.7348938407898 Q277.2971779999733,149.2528938407898 277.2971779999733,152.2448938407898 L277.2971779999733,152.2448938407898 L277.2971779999733,161.2648938407898 L273.09517799997326,161.2648938407898 L273.09517799997326,160.0768938407898 L273.09517799997326,160.0768938407898 Q271.2691779999733,161.2648938407898 269.7951779999733,161.2648938407898 L269.7951779999733,161.2648938407898 L269.7951779999733,161.2648938407898 Q266.7811779999733,161.2648938407898 265.2851779999733,159.9888938407898 L265.2851779999733,159.9888938407898 L265.2851779999733,159.9888938407898 Q263.7671779999733,158.7128938407898 263.7671779999733,156.4688938407898 L263.7671779999733,156.4688938407898 L263.7671779999733,156.4688938407898 Q263.7671779999733,154.3568938407898 265.1971779999733,152.7068938407898 L265.1971779999733,152.7068938407898 L265.1971779999733,152.7068938407898 Q266.6051779999733,151.0568938407898 269.7951779999733,151.0568938407898 L269.7951779999733,151.0568938407898 L269.7951779999733,151.0568938407898 Q271.2471779999733,151.0568938407898 273.09517799997326,151.9588938407898 L273.09517799997326,151.9588938407898 L273.09517799997326,151.4968938407898 L273.09517799997326,151.4968938407898 Q273.0731779999733,149.8468938407898 270.6971779999733,149.6928938407898 L270.6971779999733,149.6928938407898 L270.6971779999733,149.6928938407898 Q267.9911779999733,149.6928938407898 266.4731779999733,150.5948938407898 L266.4731779999733,150.5948938407898 zM273.09517799997326,156.7548938407898 L273.09517799997326,156.7548938407898 L273.09517799997326,155.0608938407898 L273.09517799997326,155.0608938407898 Q272.50117799997327,153.8948938407898 270.2351779999733,153.8948938407898 L270.2351779999733,153.8948938407898 L270.2351779999733,153.8948938407898 Q267.5291779999733,154.2028938407898 267.3751779999733,156.00689384078981 L267.3751779999733,156.00689384078981 L267.3751779999733,156.00689384078981 Q267.5291779999733,157.7888938407898 270.2351779999733,157.9428938407898 L270.2351779999733,157.9428938407898 L270.2351779999733,157.9428938407898 Q272.50117799997327,157.9428938407898 273.09517799997326,156.7548938407898 z" stroke-width="0" id="svg_2"/></g><g data-v-1084b650="" id="9269873b-566f-aa23-fe77-697bbc54db67" stroke="none" fill="#FFD7D7" transform="matrix(0.17276311525438642,0,0,0.17276311525438642,35.75002377601375,124.08554457454373) "><svg xmlns="http://www.w3.org/2000/svg" viewBox="-205 207 100 100" id="svg_3"><switch><g id="svg_4"><path d="M-155 298.8c11.2 0 21.7-4.3 29.6-12.2 7.9-7.9 12.2-18.4 12.2-29.6 0-11.2-4.3-21.7-12.2-29.6-7.9-7.9-18.4-12.2-29.6-12.2s-21.7 4.3-29.6 12.2c-7.9 7.9-12.2 18.4-12.2 29.6 0 11.2 4.3 21.7 12.2 29.6 7.9 7.9 18.4 12.2 29.6 12.2zm2.4-7.1c-.8.1-1.6.1-2.4.1-1.1 0-2.2-.1-3.3-.2-3.6-5.6-6.3-11.6-7.9-17.9h17.7c.6 1.5 1.7 2.9 3 3.8-1.7 5-4.1 9.7-7.1 14.2zm9.5-2c1.9-3.5 3.4-7 4.6-10.7 2.9-.6 5.2-2.6 6.3-5.3h7.7c-4 7.3-10.7 13-18.6 16zm22.8-32.7c0 3.3-.5 6.5-1.3 9.6h-10.8c-.6-1.3-1.6-2.5-2.8-3.4.2-2.2.3-4.4.3-6.6 0-3.1-.2-6.2-.6-9.2h13.8c1 3 1.4 6.3 1.4 9.6zm-4.2-16.7h-12.2c-1.3-5.5-3.2-10.7-5.8-15.7 7.6 2.9 14 8.6 18 15.7zm-17.4 16.3c0 1.7-.1 3.4-.2 5.1-2.8.6-5.1 2.4-6.2 4.9h-19.3c-.4-3-.7-6.1-.7-9.1 0-1.9.1-3.8.3-5.7 2.6-.5 4.7-2.2 6-4.4h19.5c.4 3 .6 6.1.6 9.2zm-15.7-34.2c.9-.1 1.8-.1 2.6-.1 1 0 2 0 3 .1 3.6 5.6 6.3 11.6 7.9 17.9h-17.4c-.6-1.7-1.7-3.2-3.1-4.3 1.8-4.8 4.1-9.3 7-13.6zm-9.5 2c-1.7 3.2-3.2 6.6-4.4 10-3.1.6-5.6 2.9-6.6 5.8h-7.3c3.9-7.1 10.4-12.8 18.3-15.8zm-22.6 32.6c0-3.3.5-6.6 1.4-9.6h10.9c.6 1.1 1.5 2.1 2.5 2.9-.2 2.4-.4 4.8-.4 7.2 0 3.1.2 6.1.6 9.1h-13.6c-1-3.1-1.4-6.3-1.4-9.6zm16.2 16.6c1.3 5.4 3.2 10.7 5.8 15.7-7.6-3-13.9-8.6-17.8-15.7h12z" id="svg_5"/></g></switch></svg></g></g></svg>